<?xml version="1.0" encoding="UTF-8" standalone="no"?>
<svg xmlns="http://www.w3.org/2000/svg" height="256px" width="256px" version="1.1" preserveAspectRatio="xMidYMid" xmlns:xlink="http://www.w3.org/1999/xlink" viewBox="0 0 256 256">
 <path d="m128 23.064c34.18 0 38.23 0.13 51.72 0.745 12.48 0.57 19.26 2.655 23.77 4.408 5.97 2.322 10.24 5.096 14.72 9.575s7.25 8.743 9.57 14.717c1.76 4.511 3.84 11.289 4.41 23.768 0.62 13.498 0.75 17.546 0.75 51.723 0 34.18-0.13 38.23-0.75 51.72-0.57 12.48-2.65 19.26-4.41 23.77-2.32 5.98-5.09 10.24-9.57 14.72s-8.75 7.25-14.72 9.57c-4.51 1.76-11.29 3.84-23.77 4.41-13.49 0.62-17.54 0.75-51.72 0.75s-38.228-0.13-51.723-0.75c-12.48-0.57-19.257-2.65-23.768-4.41-5.974-2.32-10.239-5.09-14.718-9.57s-7.253-8.74-9.574-14.72c-1.753-4.51-3.839-11.29-4.408-23.77-0.616-13.49-0.746-17.54-0.746-51.72 0-34.177 0.13-38.225 0.746-51.722 0.569-12.48 2.655-19.258 4.408-23.769 2.321-5.974 5.095-10.238 9.574-14.717s8.744-7.253 14.718-9.575c4.511-1.753 11.288-3.838 23.768-4.408 13.497-0.615 17.545-0.745 51.723-0.745m0-23.064c-34.763 0-39.122 0.14735-52.774 0.77027-13.625 0.62193-22.929 2.7854-31.071 5.9498-8.418 3.2711-15.556 7.6479-22.672 14.764-7.116 7.116-11.492 14.254-14.763 22.671-3.1648 8.142-5.3283 17.447-5.9502 31.071-0.62296 13.652-0.7698 18.011-0.7698 52.774 0 34.76 0.14684 39.12 0.76977 52.77 0.62193 13.63 2.7854 22.93 5.9498 31.08 3.2711 8.41 7.6474 15.55 14.763 22.67 7.116 7.11 14.254 11.49 22.672 14.76 8.142 3.16 17.446 5.33 31.071 5.95 13.652 0.62 18.011 0.77 52.774 0.77 34.76 0 39.12-0.15 52.77-0.77 13.63-0.62 22.93-2.79 31.07-5.95 8.42-3.27 15.56-7.65 22.68-14.76 7.11-7.12 11.49-14.26 14.76-22.67 3.16-8.15 5.33-17.45 5.95-31.08 0.62-13.65 0.77-18.01 0.77-52.77 0-34.763-0.15-39.122-0.77-52.774-0.62-13.624-2.79-22.929-5.95-31.071-3.27-8.417-7.65-15.555-14.76-22.671-7.12-7.116-14.26-11.493-22.68-14.764-8.14-3.1643-17.44-5.3278-31.07-5.9497-13.65-0.62295-18.01-0.7703-52.77-0.7703zm0 62.27c-36.302 0-65.73 29.429-65.73 65.73 0 36.3 29.428 65.73 65.73 65.73 36.3 0 65.73-29.43 65.73-65.73 0-36.301-29.43-65.73-65.73-65.73zm0 108.4c-23.56 0-42.667-19.11-42.667-42.67s19.107-42.667 42.667-42.667 42.67 19.107 42.67 42.667-19.11 42.67-42.67 42.67zm83.69-111c0 8.484-6.88 15.361-15.36 15.361-8.49 0-15.36-6.877-15.36-15.361 0-8.483 6.87-15.359 15.36-15.359 8.48 0 15.36 6.876 15.36 15.359z" fill="#e27866" opacity="0.653"/>
</svg>
